<svg width="380" height="239" viewBox="0 0 380 239" fill="none" xmlns="http://www.w3.org/2000/svg">
<g clip-path="url(#clip0_4743_28723)">
<rect width="380" height="239" rx="24" fill="#0A5CA8"/>
<g opacity="0.5">
<path opacity="0.1" d="M242.832 -32.3608L371.138 44.0095V173.138L242.832 96.0758V-32.3608Z" fill="white"/>
<path opacity="0.2" d="M498.992 -32.2837L370.69 44.0066V173L498.992 96.0183V-32.2837Z" fill="white"/>
<path opacity="0.3" d="M242.832 -31.938L371.138 -109L499.443 -31.938V-31.3616L371.138 45.7004L242.832 -31.3616V-31.938Z" fill="white"/>
<path opacity="0.1" d="M-119 40.8936L9.30562 117.264V246.392L-119 169.33V40.8936Z" fill="white"/>
<path opacity="0.2" d="M137.16 40.9707L8.85815 117.261V246.254L137.16 169.273V40.9707Z" fill="white"/>
<path opacity="0.3" d="M-119 41.3164L9.30562 -35.7456L137.611 41.3164V41.8928L9.30562 118.955L-119 41.8928V41.3164Z" fill="white"/>
<path opacity="0.1" d="M189.109 -0.239258L242.607 31.6037V85.4445L189.109 53.3131V-0.239258Z" fill="white"/>
<path opacity="0.2" d="M295.914 -0.207031L242.418 31.6026V85.3868L295.914 53.2891V-0.207031Z" fill="white"/>
<path opacity="0.3" d="M189.109 -0.0629463L242.607 -32.1943L296.105 -0.0629463V0.177376L242.607 32.3088L189.109 0.177376V-0.0629463Z" fill="white"/>
<path opacity="0.1" d="M233.953 205.316L287.451 237.159V291L233.953 258.868V205.316Z" fill="white"/>
<path opacity="0.2" d="M340.758 205.348L287.262 237.158V290.942L340.758 258.844V205.348Z" fill="white"/>
<path opacity="0.3" d="M233.953 205.492L287.451 173.361L340.948 205.492V205.733L287.451 237.864L233.953 205.733V205.492Z" fill="white"/>
</g>
<path fill-rule="evenodd" clip-rule="evenodd" d="M314.896 35.8041C314.541 36.3446 314.362 36.9818 314.383 37.6283L314.381 37.6258C314.381 39.5463 315.597 40.5069 317.163 40.5126C317.744 40.5457 318.324 40.4415 318.856 40.2079C319.389 39.9743 319.859 39.6178 320.228 39.1681C320.505 39.6411 320.867 40.0593 321.295 40.4017C321.365 40.4393 321.443 40.4555 321.522 40.4478C321.6 40.4401 321.675 40.4089 321.735 40.3585L321.738 40.3615C322.111 40.0362 322.784 39.4479 323.162 39.1349C323.194 39.1034 323.22 39.0657 323.239 39.024C323.257 38.9823 323.267 38.9375 323.267 38.892C323.268 38.8466 323.26 38.8013 323.243 38.759C323.227 38.7168 323.201 38.6783 323.17 38.6456C322.73 38.183 322.482 37.5711 322.474 36.9328V34.052C322.474 33.9575 322.474 33.8636 322.475 33.7703V33.7702V33.7701V33.77L322.475 33.7678C322.481 32.6599 322.486 31.6472 321.653 30.8727C320.86 30.241 319.866 29.9149 318.853 29.9538C317.084 29.9538 315.106 30.607 314.695 32.7803C314.686 32.8241 314.686 32.8695 314.695 32.9133C314.705 32.9571 314.723 32.9983 314.748 33.0347C314.774 33.0712 314.808 33.1021 314.846 33.1251C314.884 33.1481 314.927 33.1625 314.972 33.1683L316.772 33.3605C316.856 33.3468 316.933 33.3065 316.992 33.2456C317.05 33.1846 317.087 33.1061 317.098 33.0222C317.17 32.6873 317.362 32.3906 317.636 32.1866C317.911 31.9826 318.251 31.8856 318.592 31.9136C318.791 31.9039 318.99 31.9427 319.171 32.0265C319.352 32.1103 319.51 32.2362 319.633 32.3944C319.839 32.8074 319.918 33.2727 319.861 33.7308V33.9662C319.684 33.9864 319.499 34.0054 319.308 34.025L319.307 34.025C318.332 34.1249 317.209 34.2399 316.364 34.6086C315.764 34.846 315.25 35.2635 314.896 35.8041ZM290.516 35.8071C290.162 36.3471 289.982 36.9837 290.001 37.6299V37.6293C290.001 39.5478 291.221 40.5069 292.786 40.5126C293.367 40.5462 293.948 40.4421 294.481 40.2085C295.014 39.9748 295.484 39.6182 295.853 39.1681C296.13 39.6416 296.491 40.0599 296.92 40.4017C296.989 40.44 297.067 40.4568 297.145 40.4493C297.224 40.4419 297.298 40.4106 297.359 40.36L297.365 40.363C297.735 40.0372 298.408 39.4505 298.79 39.1365C298.822 39.1046 298.848 39.0665 298.866 39.0246C298.884 38.9826 298.893 38.9377 298.893 38.8921C298.894 38.8464 298.885 38.8008 298.868 38.7586C298.851 38.7163 298.826 38.6781 298.793 38.6457C298.352 38.184 298.102 37.5719 298.094 36.9328V34.0521C298.094 33.9546 298.094 33.8577 298.095 33.7615C298.101 32.656 298.107 31.6458 297.276 30.8727C296.482 30.2408 295.488 29.9148 294.474 29.9538C292.705 29.9538 290.732 30.607 290.316 32.7803C290.307 32.824 290.308 32.8693 290.317 32.9128C290.326 32.9563 290.344 32.9975 290.37 33.0338C290.396 33.0701 290.429 33.1004 290.467 33.1236C290.505 33.1468 290.547 33.162 290.591 33.1683L292.399 33.3605C292.482 33.3459 292.558 33.3054 292.615 33.2445C292.673 33.1837 292.71 33.1055 292.72 33.0222C292.793 32.6874 292.985 32.3906 293.26 32.1866C293.535 31.9826 293.875 31.8858 294.216 31.9136C294.416 31.9042 294.614 31.9428 294.795 32.0265C294.977 32.1102 295.135 32.2364 295.258 32.3944C295.462 32.8081 295.54 33.273 295.483 33.7309V33.9688C295.301 33.9899 295.11 34.0097 294.913 34.0301H294.913C293.942 34.1308 292.826 34.2465 291.985 34.6126C291.384 34.8499 290.872 35.267 290.516 35.8071ZM336.799 30.0396C334.109 30.0396 332.618 32.3362 332.617 35.285C332.618 38.2185 334.089 40.5731 336.799 40.5752C339.402 40.5752 341.052 38.2797 341.052 35.3874C341.059 32.3939 339.562 30.0396 336.799 30.0396ZM327.805 46.3258C328.229 45.2815 329.17 42.9379 328.726 42.3685C328.289 41.8089 325.861 42.0913 324.711 42.2251L324.652 42.232C324.309 42.2726 324.259 41.975 324.565 41.7623C326.562 40.3691 329.835 40.7717 330.215 41.2403C330.594 41.709 330.118 44.9754 328.24 46.5285C328.161 46.601 328.061 46.6441 327.955 46.6513C327.807 46.6523 327.723 46.528 327.806 46.3237L327.805 46.3258ZM298.6 41.9572C298.273 41.6637 298.565 41.2627 298.96 41.4944C303.77 44.2264 309.206 45.6595 314.736 45.6534C318.87 45.6346 322.959 44.8033 326.772 43.2063C327.363 42.9602 327.854 43.5974 327.278 44.0213C323.787 46.5801 318.728 47.9424 314.37 47.9424C308.554 47.9743 302.933 45.8413 298.6 41.9572ZM335.356 34.9876V35.0224C335.356 36.1947 335.356 38.6196 336.799 38.6196C338.245 38.6196 338.314 36.6256 338.308 35.4091C338.339 34.5615 338.245 33.7136 338.03 32.8933C337.971 32.6194 337.816 32.3759 337.593 32.2073C337.37 32.0386 337.093 31.9566 336.814 31.9759C335.445 31.9764 335.356 33.8262 335.356 34.9856V34.9876ZM292.722 37.3085C292.722 38.1081 293.137 38.6469 293.851 38.6469C294.121 38.6357 294.383 38.552 294.609 38.4045C294.835 38.257 295.018 38.0513 295.137 37.8088C295.436 37.2015 295.558 36.5214 295.486 35.848V35.4495C294.14 35.447 292.72 35.7323 292.72 37.3059L292.722 37.3085ZM317.095 37.3086C317.095 38.1083 317.513 38.6471 318.228 38.6471C318.498 38.6352 318.759 38.5512 318.984 38.4037C319.21 38.2563 319.392 38.0509 319.512 37.809C319.811 37.2017 319.932 36.5216 319.861 35.8482V35.4497C318.513 35.4472 317.093 35.7325 317.093 37.3061L317.095 37.3086ZM347.643 40.2883C347.702 40.3429 347.779 40.3754 347.859 40.3807L349.728 40.3847C349.813 40.3851 349.896 40.3553 349.962 40.3004C350.028 40.2454 350.072 40.169 350.087 40.0846V34.1139V34.111C350.087 33.1934 350.087 31.9207 349.6 31.1609C349.366 30.8004 349.043 30.5071 348.662 30.3107C348.28 30.1143 347.854 30.0213 347.426 30.0412C346.144 30.0412 345.411 30.6607 344.893 31.9563H344.864V30.5074C344.843 30.4331 344.801 30.3668 344.741 30.3187C344.681 30.2706 344.607 30.2435 344.53 30.2405H342.807C342.719 30.2378 342.634 30.2678 342.567 30.3247C342.501 30.3818 342.458 30.4617 342.447 30.5486L342.449 40.0359C342.451 40.1254 342.487 40.2112 342.549 40.2753C342.612 40.3394 342.697 40.3769 342.786 40.3807H344.634C344.68 40.382 344.726 40.3742 344.77 40.3576C344.814 40.3409 344.853 40.3159 344.887 40.2838C344.921 40.2518 344.948 40.2134 344.967 40.1709C344.986 40.1283 344.996 40.0825 344.998 40.0359V34.9314C344.962 34.3172 345.063 33.7026 345.295 33.1327C345.382 32.9159 345.531 32.7292 345.722 32.5947C345.914 32.4603 346.14 32.3835 346.373 32.3744C347.554 32.3744 347.542 33.6616 347.533 34.6756C347.532 34.7625 347.531 34.8475 347.531 34.9294V40.0805C347.544 40.1604 347.583 40.2338 347.643 40.2883ZM310.544 40.3769C310.455 40.3721 310.371 40.3341 310.309 40.2705C310.247 40.207 310.211 40.1224 310.209 40.0336V35.0054C310.236 34.4121 310.219 33.8175 310.158 33.2268C310.12 32.9739 309.983 32.7459 309.779 32.5929C309.574 32.4401 309.317 32.3747 309.065 32.4108C308.824 32.4178 308.59 32.4949 308.393 32.6331C308.195 32.7713 308.043 32.9642 307.953 33.1882C307.799 33.7808 307.741 34.3944 307.781 35.0054V40.0336C307.78 40.0798 307.77 40.1253 307.752 40.1676C307.733 40.2099 307.706 40.2482 307.672 40.28C307.639 40.3119 307.6 40.3367 307.557 40.3533C307.514 40.37 307.468 40.3781 307.422 40.3769H305.565C305.476 40.3728 305.392 40.3352 305.33 40.2715C305.267 40.2078 305.231 40.1228 305.229 40.0336V35.0054C305.229 34.8993 305.231 34.7881 305.233 34.674C305.248 33.6507 305.268 32.3912 304.08 32.3912C302.795 32.3912 302.797 33.7973 302.799 34.8812L302.799 35.0054V40.0346C302.798 40.0807 302.788 40.126 302.769 40.1682C302.751 40.2103 302.724 40.2483 302.691 40.28C302.657 40.3118 302.618 40.3368 302.575 40.3533C302.531 40.3699 302.486 40.3781 302.44 40.3769H300.579C300.495 40.3742 300.415 40.3413 300.354 40.2841C300.293 40.2268 300.254 40.1488 300.246 40.0653V30.581C300.247 30.5349 300.257 30.4897 300.276 30.4475C300.294 30.4053 300.321 30.3673 300.354 30.3356C300.388 30.3038 300.427 30.2789 300.47 30.2623C300.513 30.2458 300.559 30.2375 300.605 30.2387H302.338C302.424 30.241 302.505 30.2748 302.567 30.3335C302.63 30.3923 302.669 30.472 302.676 30.5574V31.795H302.708C302.863 31.2716 303.188 30.8147 303.632 30.4966C304.075 30.1786 304.611 30.0174 305.156 30.0384C306.32 30.0384 307.05 30.5991 307.569 31.795C307.745 31.3434 308.037 30.9461 308.415 30.6432C308.793 30.3403 309.244 30.1425 309.723 30.0696C310.202 29.9967 310.691 30.051 311.142 30.2277C311.593 30.4042 311.99 30.6971 312.291 31.0758C312.795 31.7588 312.779 32.7077 312.765 33.6045C312.762 33.7544 312.76 33.9029 312.76 34.0484L312.758 40.0336C312.757 40.0798 312.746 40.1254 312.727 40.1676C312.709 40.2099 312.682 40.2477 312.649 40.2796C312.615 40.3114 312.576 40.3367 312.533 40.3533C312.49 40.37 312.444 40.378 312.398 40.3769H310.544ZM324.388 38.4172V39.7943L324.386 39.7923C324.388 39.8782 324.422 39.9601 324.48 40.0232C324.539 40.0862 324.618 40.1262 324.703 40.1351C324.744 40.1349 324.785 40.1238 324.821 40.1035C325.819 39.5903 326.925 39.3221 328.047 39.3206C329.168 39.3191 330.275 39.5845 331.274 40.095C331.324 40.1153 331.379 40.123 331.433 40.1171C331.487 40.1111 331.538 40.0917 331.583 40.0608C331.627 40.03 331.664 39.9887 331.688 39.9404C331.713 39.8921 331.725 39.8381 331.724 39.7838V38.3354C331.72 38.2267 331.688 38.1205 331.63 38.0283C331.573 37.936 331.492 37.8607 331.396 37.8094C330.321 37.2549 329.118 36.998 327.91 37.0657L331.081 32.573C331.376 32.1685 331.543 31.9161 331.543 31.7213V30.5585C331.544 30.5122 331.535 30.4667 331.517 30.424C331.499 30.3813 331.473 30.3423 331.44 30.31C331.407 30.2779 331.367 30.2527 331.324 30.2363C331.281 30.2199 331.235 30.2126 331.188 30.2147H325.08C325.035 30.2131 324.989 30.2211 324.947 30.2378C324.904 30.2545 324.866 30.2798 324.833 30.3121C324.801 30.3443 324.776 30.3826 324.759 30.425C324.742 30.4674 324.734 30.5129 324.736 30.5585V31.916C324.735 31.9621 324.743 32.0075 324.761 32.05C324.778 32.0926 324.805 32.131 324.838 32.1629C324.871 32.1949 324.91 32.2201 324.953 32.2362C324.996 32.2523 325.042 32.2593 325.088 32.2568H328.281L324.612 37.4862C324.446 37.7674 324.368 38.0914 324.388 38.4172Z" fill="white"/>
<path opacity="0.4" d="M330.456 209.049C340.411 209.049 348.482 200.979 348.482 191.023C348.482 181.068 340.411 172.998 330.456 172.998C320.5 172.998 312.43 181.068 312.43 191.023C312.43 200.979 320.5 209.049 330.456 209.049Z" fill="white"/>
<path opacity="0.859468" d="M308.026 209.049C317.982 209.049 326.052 200.979 326.052 191.023C326.052 181.068 317.982 172.998 308.026 172.998C298.071 172.998 290 181.068 290 191.023C290 200.979 298.071 209.049 308.026 209.049Z" fill="white"/>
<path d="M30.96 47L33.136 35.8H34.752L37.48 42.976L40.208 35.8H41.824L44 47H42.008L40.664 40.072L38.144 46.744H36.808L34.288 40.072L32.952 47H30.96ZM48.7894 47.208C48.0534 47.208 47.3814 47.0187 46.7734 46.64C46.1707 46.2613 45.688 45.7547 45.3254 45.12C44.968 44.48 44.7894 43.7733 44.7894 43C44.7894 42.4133 44.8934 41.8667 45.1014 41.36C45.3094 40.848 45.5947 40.4 45.9574 40.016C46.3254 39.6267 46.752 39.3227 47.2374 39.104C47.7227 38.8853 48.24 38.776 48.7894 38.776C49.5254 38.776 50.1947 38.9653 50.7974 39.344C51.4054 39.7227 51.888 40.232 52.2454 40.872C52.608 41.512 52.7894 42.2213 52.7894 43C52.7894 43.5813 52.6854 44.1253 52.4774 44.632C52.2694 45.1387 51.9814 45.5867 51.6134 45.976C51.2507 46.36 50.8267 46.6613 50.3414 46.88C49.8614 47.0987 49.344 47.208 48.7894 47.208ZM48.7894 45.256C49.1787 45.256 49.528 45.152 49.8374 44.944C50.1467 44.736 50.3894 44.4613 50.5654 44.12C50.7467 43.7787 50.8374 43.4053 50.8374 43C50.8374 42.584 50.744 42.2053 50.5574 41.864C50.376 41.5173 50.128 41.2427 49.8134 41.04C49.504 40.832 49.1627 40.728 48.7894 40.728C48.4054 40.728 48.0587 40.832 47.7494 41.04C47.44 41.248 47.1947 41.5253 47.0134 41.872C46.832 42.2187 46.7414 42.5947 46.7414 43C46.7414 43.4213 46.8347 43.8027 47.0214 44.144C47.208 44.4853 47.456 44.7573 47.7654 44.96C48.08 45.1573 48.4214 45.256 48.7894 45.256ZM59.2262 44.592L60.9862 45.544C60.6182 46.0453 60.1569 46.448 59.6023 46.752C59.0476 47.056 58.4422 47.208 57.7862 47.208C57.0502 47.208 56.3782 47.0187 55.7702 46.64C55.1676 46.2613 54.6849 45.7547 54.3222 45.12C53.9649 44.48 53.7862 43.7733 53.7862 43C53.7862 42.4133 53.8902 41.8667 54.0982 41.36C54.3062 40.848 54.5916 40.4 54.9542 40.016C55.3222 39.6267 55.7489 39.3227 56.2342 39.104C56.7196 38.8853 57.2369 38.776 57.7862 38.776C58.4422 38.776 59.0476 38.928 59.6023 39.232C60.1569 39.536 60.6182 39.944 60.9862 40.456L59.2262 41.4C59.0396 41.1867 58.8182 41.0213 58.5622 40.904C58.3116 40.7867 58.0529 40.728 57.7862 40.728C57.4022 40.728 57.0556 40.8347 56.7462 41.048C56.4369 41.256 56.1916 41.5333 56.0102 41.88C55.8289 42.2213 55.7382 42.5947 55.7382 43C55.7382 43.4 55.8289 43.7733 56.0102 44.12C56.1916 44.4613 56.4369 44.736 56.7462 44.944C57.0556 45.152 57.4022 45.256 57.7862 45.256C58.0636 45.256 58.3276 45.1973 58.5782 45.08C58.8289 44.9573 59.0449 44.7947 59.2262 44.592ZM68.4045 39H70.3565V47H68.4045L68.3165 46.008C68.0978 46.3653 67.8072 46.656 67.4445 46.88C67.0872 47.0987 66.6632 47.208 66.1725 47.208C65.5805 47.208 65.0258 47.096 64.5085 46.872C63.9912 46.648 63.5352 46.3387 63.1405 45.944C62.7512 45.5493 62.4445 45.0933 62.2205 44.576C62.0018 44.0587 61.8925 43.504 61.8925 42.912C61.8925 42.3413 61.9965 41.8053 62.2045 41.304C62.4178 40.8027 62.7138 40.3627 63.0925 39.984C63.4712 39.6053 63.9085 39.3093 64.4045 39.096C64.9005 38.8827 65.4338 38.776 66.0045 38.776C66.5325 38.776 67.0045 38.8933 67.4205 39.128C67.8418 39.3627 68.1992 39.6613 68.4925 40.024L68.4045 39ZM66.1245 45.328C66.5405 45.328 66.9085 45.224 67.2285 45.016C67.5485 44.808 67.7992 44.528 67.9805 44.176C68.1618 43.8187 68.2525 43.4267 68.2525 43C68.2525 42.568 68.1618 42.176 67.9805 41.824C67.7992 41.4667 67.5458 41.184 67.2205 40.976C66.9005 40.768 66.5352 40.664 66.1245 40.664C65.7138 40.664 65.3378 40.7707 64.9965 40.984C64.6605 41.192 64.3912 41.472 64.1885 41.824C63.9912 42.176 63.8925 42.568 63.8925 43C63.8925 43.432 63.9938 43.824 64.1965 44.176C64.3992 44.528 64.6685 44.808 65.0045 45.016C65.3458 45.224 65.7192 45.328 66.1245 45.328ZM72.1586 47L72.1506 39H74.1026L74.1106 39.712C74.3826 39.424 74.708 39.1973 75.0866 39.032C75.4653 38.8613 75.8733 38.776 76.3106 38.776C76.604 38.776 76.8973 38.8187 77.1906 38.904L76.4226 40.872C76.22 40.792 76.0173 40.752 75.8146 40.752C75.5 40.752 75.212 40.8293 74.9506 40.984C74.6946 41.1333 74.4893 41.3387 74.3346 41.6C74.1853 41.856 74.1106 42.1413 74.1106 42.456V47H72.1586ZM83.9611 35H85.9131V47H83.9611V46C83.7051 46.3573 83.3825 46.648 82.9931 46.872C82.6038 47.096 82.1531 47.208 81.6411 47.208C81.0598 47.208 80.5158 47.0987 80.0091 46.88C79.5025 46.6613 79.0545 46.36 78.6651 45.976C78.2811 45.5867 77.9798 45.1387 77.7611 44.632C77.5425 44.1253 77.4331 43.5813 77.4331 43C77.4331 42.4187 77.5425 41.8747 77.7611 41.368C77.9798 40.8613 78.2811 40.416 78.6651 40.032C79.0545 39.6427 79.5025 39.3387 80.0091 39.12C80.5158 38.9013 81.0598 38.792 81.6411 38.792C82.1531 38.792 82.6038 38.904 82.9931 39.128C83.3825 39.3467 83.7051 39.6373 83.9611 40V35ZM81.6651 45.328C82.0811 45.328 82.4491 45.224 82.7691 45.016C83.0891 44.808 83.3398 44.528 83.5211 44.176C83.7025 43.8187 83.7931 43.4267 83.7931 43C83.7931 42.568 83.7025 42.176 83.5211 41.824C83.3398 41.4667 83.0865 41.184 82.7611 40.976C82.4411 40.768 82.0758 40.664 81.6651 40.664C81.2545 40.664 80.8785 40.7707 80.5371 40.984C80.2011 41.192 79.9318 41.472 79.7291 41.824C79.5318 42.176 79.4331 42.568 79.4331 43C79.4331 43.432 79.5345 43.824 79.7371 44.176C79.9398 44.528 80.2091 44.808 80.5451 45.016C80.8865 45.224 81.2598 45.328 81.6651 45.328Z" fill="white"/>
<path d="M35.928 119.608C34.808 119.608 33.856 119.224 33.072 118.456C32.304 117.672 31.92 116.72 31.92 115.6C31.92 114.48 32.304 113.536 33.072 112.768C33.856 111.984 34.808 111.592 35.928 111.592C37.048 111.592 38 111.984 38.784 112.768C39.568 113.536 39.96 114.48 39.96 115.6C39.96 116.72 39.568 117.672 38.784 118.456C38 119.224 37.048 119.608 35.928 119.608ZM47.7874 119.608C46.6674 119.608 45.7154 119.224 44.9314 118.456C44.1634 117.672 43.7794 116.72 43.7794 115.6C43.7794 114.48 44.1634 113.536 44.9314 112.768C45.7154 111.984 46.6674 111.592 47.7874 111.592C48.9074 111.592 49.8594 111.984 50.6434 112.768C51.4274 113.536 51.8194 114.48 51.8194 115.6C51.8194 116.72 51.4274 117.672 50.6434 118.456C49.8594 119.224 48.9074 119.608 47.7874 119.608ZM59.6468 119.608C58.5268 119.608 57.5748 119.224 56.7908 118.456C56.0228 117.672 55.6388 116.72 55.6388 115.6C55.6388 114.48 56.0228 113.536 56.7908 112.768C57.5748 111.984 58.5268 111.592 59.6468 111.592C60.7668 111.592 61.7188 111.984 62.5028 112.768C63.2868 113.536 63.6788 114.48 63.6788 115.6C63.6788 116.72 63.2868 117.672 62.5028 118.456C61.7188 119.224 60.7668 119.608 59.6468 119.608ZM71.5061 119.608C70.3861 119.608 69.4341 119.224 68.6501 118.456C67.8821 117.672 67.4981 116.72 67.4981 115.6C67.4981 114.48 67.8821 113.536 68.6501 112.768C69.4341 111.984 70.3861 111.592 71.5061 111.592C72.6261 111.592 73.5781 111.984 74.3621 112.768C75.1461 113.536 75.5381 114.48 75.5381 115.6C75.5381 116.72 75.1461 117.672 74.3621 118.456C73.5781 119.224 72.6261 119.608 71.5061 119.608ZM94.8968 119.608C93.7768 119.608 92.8248 119.224 92.0408 118.456C91.2728 117.672 90.8888 116.72 90.8888 115.6C90.8888 114.48 91.2728 113.536 92.0408 112.768C92.8248 111.984 93.7768 111.592 94.8968 111.592C96.0168 111.592 96.9688 111.984 97.7528 112.768C98.5368 113.536 98.9288 114.48 98.9288 115.6C98.9288 116.72 98.5368 117.672 97.7528 118.456C96.9688 119.224 96.0168 119.608 94.8968 119.608ZM106.756 119.608C105.636 119.608 104.684 119.224 103.9 118.456C103.132 117.672 102.748 116.72 102.748 115.6C102.748 114.48 103.132 113.536 103.9 112.768C104.684 111.984 105.636 111.592 106.756 111.592C107.876 111.592 108.828 111.984 109.612 112.768C110.396 113.536 110.788 114.48 110.788 115.6C110.788 116.72 110.396 117.672 109.612 118.456C108.828 119.224 107.876 119.608 106.756 119.608ZM118.616 119.608C117.496 119.608 116.544 119.224 115.76 118.456C114.992 117.672 114.608 116.72 114.608 115.6C114.608 114.48 114.992 113.536 115.76 112.768C116.544 111.984 117.496 111.592 118.616 111.592C119.736 111.592 120.688 111.984 121.472 112.768C122.256 113.536 122.648 114.48 122.648 115.6C122.648 116.72 122.256 117.672 121.472 118.456C120.688 119.224 119.736 119.608 118.616 119.608ZM130.475 119.608C129.355 119.608 128.403 119.224 127.619 118.456C126.851 117.672 126.467 116.72 126.467 115.6C126.467 114.48 126.851 113.536 127.619 112.768C128.403 111.984 129.355 111.592 130.475 111.592C131.595 111.592 132.547 111.984 133.331 112.768C134.115 113.536 134.507 114.48 134.507 115.6C134.507 116.72 134.115 117.672 133.331 118.456C132.547 119.224 131.595 119.608 130.475 119.608ZM153.866 119.608C152.746 119.608 151.794 119.224 151.01 118.456C150.242 117.672 149.858 116.72 149.858 115.6C149.858 114.48 150.242 113.536 151.01 112.768C151.794 111.984 152.746 111.592 153.866 111.592C154.986 111.592 155.938 111.984 156.722 112.768C157.506 113.536 157.898 114.48 157.898 115.6C157.898 116.72 157.506 117.672 156.722 118.456C155.938 119.224 154.986 119.608 153.866 119.608ZM165.725 119.608C164.605 119.608 163.653 119.224 162.869 118.456C162.101 117.672 161.717 116.72 161.717 115.6C161.717 114.48 162.101 113.536 162.869 112.768C163.653 111.984 164.605 111.592 165.725 111.592C166.845 111.592 167.797 111.984 168.581 112.768C169.365 113.536 169.757 114.48 169.757 115.6C169.757 116.72 169.365 117.672 168.581 118.456C167.797 119.224 166.845 119.608 165.725 119.608ZM177.584 119.608C176.464 119.608 175.512 119.224 174.728 118.456C173.96 117.672 173.576 116.72 173.576 115.6C173.576 114.48 173.96 113.536 174.728 112.768C175.512 111.984 176.464 111.592 177.584 111.592C178.704 111.592 179.656 111.984 180.44 112.768C181.224 113.536 181.616 114.48 181.616 115.6C181.616 116.72 181.224 117.672 180.44 118.456C179.656 119.224 178.704 119.608 177.584 119.608ZM189.444 119.608C188.324 119.608 187.372 119.224 186.588 118.456C185.82 117.672 185.436 116.72 185.436 115.6C185.436 114.48 185.82 113.536 186.588 112.768C187.372 111.984 188.324 111.592 189.444 111.592C190.564 111.592 191.516 111.984 192.3 112.768C193.084 113.536 193.476 114.48 193.476 115.6C193.476 116.72 193.084 117.672 192.3 118.456C191.516 119.224 190.564 119.608 189.444 119.608ZM212.834 119.608C211.714 119.608 210.762 119.224 209.978 118.456C209.21 117.672 208.826 116.72 208.826 115.6C208.826 114.48 209.21 113.536 209.978 112.768C210.762 111.984 211.714 111.592 212.834 111.592C213.954 111.592 214.906 111.984 215.69 112.768C216.474 113.536 216.866 114.48 216.866 115.6C216.866 116.72 216.474 117.672 215.69 118.456C214.906 119.224 213.954 119.608 212.834 119.608ZM224.694 119.608C223.574 119.608 222.622 119.224 221.838 118.456C221.07 117.672 220.686 116.72 220.686 115.6C220.686 114.48 221.07 113.536 221.838 112.768C222.622 111.984 223.574 111.592 224.694 111.592C225.814 111.592 226.766 111.984 227.55 112.768C228.334 113.536 228.726 114.48 228.726 115.6C228.726 116.72 228.334 117.672 227.55 118.456C226.766 119.224 225.814 119.608 224.694 119.608ZM236.553 119.608C235.433 119.608 234.481 119.224 233.697 118.456C232.929 117.672 232.545 116.72 232.545 115.6C232.545 114.48 232.929 113.536 233.697 112.768C234.481 111.984 235.433 111.592 236.553 111.592C237.673 111.592 238.625 111.984 239.409 112.768C240.193 113.536 240.585 114.48 240.585 115.6C240.585 116.72 240.193 117.672 239.409 118.456C238.625 119.224 237.673 119.608 236.553 119.608ZM248.412 119.608C247.292 119.608 246.34 119.224 245.556 118.456C244.788 117.672 244.404 116.72 244.404 115.6C244.404 114.48 244.788 113.536 245.556 112.768C246.34 111.984 247.292 111.592 248.412 111.592C249.532 111.592 250.484 111.984 251.268 112.768C252.052 113.536 252.444 114.48 252.444 115.6C252.444 116.72 252.052 117.672 251.268 118.456C250.484 119.224 249.532 119.608 248.412 119.608Z" fill="white"/>
<path d="M33.84 184.13C33.3667 184.13 32.9217 184.037 32.505 183.85C32.0883 183.66 31.7217 183.4 31.405 183.07C31.0917 182.737 30.845 182.35 30.665 181.91C30.4883 181.47 30.4 181 30.4 180.5C30.4 180 30.4883 179.53 30.665 179.09C30.845 178.65 31.0917 178.265 31.405 177.935C31.7217 177.602 32.0883 177.342 32.505 177.155C32.9217 176.965 33.3667 176.87 33.84 176.87C34.4067 176.87 34.9283 177.002 35.405 177.265C35.8817 177.528 36.2767 177.878 36.59 178.315L35.845 178.715C35.6117 178.408 35.3167 178.165 34.96 177.985C34.6067 177.802 34.2333 177.71 33.84 177.71C33.4767 177.71 33.1367 177.783 32.82 177.93C32.5067 178.077 32.2317 178.278 31.995 178.535C31.7583 178.792 31.5733 179.088 31.44 179.425C31.3067 179.762 31.24 180.12 31.24 180.5C31.24 180.883 31.3067 181.243 31.44 181.58C31.5767 181.917 31.7633 182.213 32 182.47C32.24 182.727 32.5167 182.928 32.83 183.075C33.1467 183.218 33.4833 183.29 33.84 183.29C34.2467 183.29 34.6233 183.198 34.97 183.015C35.32 182.828 35.6117 182.585 35.845 182.285L36.59 182.69C36.2767 183.127 35.8817 183.477 35.405 183.74C34.9283 184 34.4067 184.13 33.84 184.13ZM41.5387 179H42.3787V184H41.5387L41.5038 183.155C41.3471 183.445 41.1304 183.68 40.8538 183.86C40.5804 184.04 40.2537 184.13 39.8737 184.13C39.5071 184.13 39.1637 184.062 38.8437 183.925C38.5237 183.785 38.2404 183.593 37.9937 183.35C37.7504 183.103 37.5604 182.82 37.4237 182.5C37.2871 182.18 37.2187 181.835 37.2187 181.465C37.2187 181.108 37.2854 180.772 37.4187 180.455C37.5521 180.138 37.7371 179.862 37.9737 179.625C38.2137 179.385 38.4904 179.198 38.8037 179.065C39.1171 178.928 39.4537 178.86 39.8138 178.86C40.2071 178.86 40.5521 178.953 40.8487 179.14C41.1454 179.323 41.3854 179.562 41.5688 179.855L41.5387 179ZM39.8587 183.315C40.1887 183.315 40.4738 183.235 40.7138 183.075C40.9571 182.912 41.1437 182.692 41.2738 182.415C41.4071 182.138 41.4738 181.833 41.4738 181.5C41.4738 181.16 41.4071 180.853 41.2738 180.58C41.1404 180.303 40.9521 180.085 40.7087 179.925C40.4688 179.762 40.1854 179.68 39.8587 179.68C39.5287 179.68 39.2287 179.762 38.9587 179.925C38.6887 180.088 38.4737 180.308 38.3137 180.585C38.1571 180.858 38.0787 181.163 38.0787 181.5C38.0787 181.837 38.1604 182.143 38.3237 182.42C38.4871 182.693 38.7037 182.912 38.9737 183.075C39.2437 183.235 39.5387 183.315 39.8587 183.315ZM43.5781 184V179H44.4181V179.625C44.5948 179.392 44.8181 179.207 45.0881 179.07C45.3581 178.93 45.6515 178.86 45.9681 178.86C46.1615 178.86 46.3481 178.885 46.5281 178.935L46.1881 179.775C46.0515 179.732 45.9181 179.71 45.7881 179.71C45.5381 179.71 45.3081 179.772 45.0981 179.895C44.8915 180.015 44.7265 180.178 44.6031 180.385C44.4798 180.592 44.4181 180.822 44.4181 181.075V184H43.5781ZM51.1137 176.5H51.9537V184H51.1137V183.15C50.9437 183.443 50.7153 183.68 50.4287 183.86C50.142 184.04 49.8053 184.13 49.4187 184.13C49.0553 184.13 48.7153 184.062 48.3987 183.925C48.082 183.788 47.802 183.6 47.5587 183.36C47.3187 183.117 47.1303 182.837 46.9937 182.52C46.857 182.203 46.7887 181.863 46.7887 181.5C46.7887 181.137 46.857 180.797 46.9937 180.48C47.1303 180.16 47.3187 179.88 47.5587 179.64C47.802 179.397 48.082 179.207 48.3987 179.07C48.7153 178.933 49.0553 178.865 49.4187 178.865C49.8053 178.865 50.142 178.955 50.4287 179.135C50.7153 179.315 50.9437 179.552 51.1137 179.845V176.5ZM49.4287 183.315C49.7587 183.315 50.0437 183.235 50.2837 183.075C50.527 182.912 50.7137 182.692 50.8437 182.415C50.977 182.138 51.0437 181.833 51.0437 181.5C51.0437 181.16 50.977 180.853 50.8437 180.58C50.7103 180.303 50.522 180.085 50.2787 179.925C50.0387 179.762 49.7553 179.68 49.4287 179.68C49.0987 179.68 48.7987 179.762 48.5287 179.925C48.262 180.088 48.0487 180.308 47.8887 180.585C47.7287 180.858 47.6487 181.163 47.6487 181.5C47.6487 181.837 47.7303 182.143 47.8937 182.42C48.057 182.693 48.2737 182.912 48.5437 183.075C48.8137 183.235 49.1087 183.315 49.4287 183.315ZM60.2605 177H61.1005V184H60.2605V180.67H56.7955V184H55.9555V177H56.7955V179.83H60.2605V177ZM64.6543 184.13C64.1943 184.13 63.7743 184.012 63.3943 183.775C63.0176 183.538 62.716 183.222 62.4893 182.825C62.266 182.425 62.1543 181.983 62.1543 181.5C62.1543 181.133 62.2193 180.792 62.3493 180.475C62.4793 180.155 62.6576 179.875 62.8843 179.635C63.1143 179.392 63.381 179.202 63.6843 179.065C63.9876 178.928 64.311 178.86 64.6543 178.86C65.1143 178.86 65.5326 178.978 65.9093 179.215C66.2893 179.452 66.591 179.77 66.8143 180.17C67.041 180.57 67.1543 181.013 67.1543 181.5C67.1543 181.863 67.0893 182.203 66.9593 182.52C66.8293 182.837 66.6493 183.117 66.4193 183.36C66.1926 183.6 65.9276 183.788 65.6243 183.925C65.3243 184.062 65.001 184.13 64.6543 184.13ZM64.6543 183.29C64.9676 183.29 65.2493 183.208 65.4993 183.045C65.7526 182.878 65.951 182.66 66.0943 182.39C66.241 182.117 66.3143 181.82 66.3143 181.5C66.3143 181.173 66.2393 180.873 66.0893 180.6C65.9426 180.327 65.7443 180.108 65.4943 179.945C65.2443 179.782 64.9643 179.7 64.6543 179.7C64.341 179.7 64.0593 179.783 63.8093 179.95C63.5593 180.113 63.361 180.332 63.2143 180.605C63.0676 180.878 62.9943 181.177 62.9943 181.5C62.9943 181.833 63.0693 182.137 63.2193 182.41C63.3693 182.68 63.571 182.895 63.8243 183.055C64.0776 183.212 64.3543 183.29 64.6543 183.29ZM68.1328 184V176.5H68.9728V184H68.1328ZM74.35 176.5H75.19V184H74.35V183.15C74.18 183.443 73.9517 183.68 73.665 183.86C73.3783 184.04 73.0417 184.13 72.655 184.13C72.2917 184.13 71.9517 184.062 71.635 183.925C71.3183 183.788 71.0383 183.6 70.795 183.36C70.555 183.117 70.3667 182.837 70.23 182.52C70.0933 182.203 70.025 181.863 70.025 181.5C70.025 181.137 70.0933 180.797 70.23 180.48C70.3667 180.16 70.555 179.88 70.795 179.64C71.0383 179.397 71.3183 179.207 71.635 179.07C71.9517 178.933 72.2917 178.865 72.655 178.865C73.0417 178.865 73.3783 178.955 73.665 179.135C73.9517 179.315 74.18 179.552 74.35 179.845V176.5ZM72.665 183.315C72.995 183.315 73.28 183.235 73.52 183.075C73.7633 182.912 73.95 182.692 74.08 182.415C74.2133 182.138 74.28 181.833 74.28 181.5C74.28 181.16 74.2133 180.853 74.08 180.58C73.9467 180.303 73.7583 180.085 73.515 179.925C73.275 179.762 72.9917 179.68 72.665 179.68C72.335 179.68 72.035 179.762 71.765 179.925C71.4983 180.088 71.285 180.308 71.125 180.585C70.965 180.858 70.885 181.163 70.885 181.5C70.885 181.837 70.9667 182.143 71.13 182.42C71.2933 182.693 71.51 182.912 71.78 183.075C72.05 183.235 72.345 183.315 72.665 183.315ZM78.7406 184.13C78.2806 184.13 77.8606 184.012 77.4806 183.775C77.104 183.538 76.8023 183.222 76.5756 182.825C76.3523 182.425 76.2406 181.983 76.2406 181.5C76.2406 181.133 76.3056 180.792 76.4356 180.475C76.5656 180.155 76.744 179.875 76.9706 179.635C77.2006 179.392 77.4673 179.202 77.7706 179.065C78.074 178.928 78.3973 178.86 78.7406 178.86C79.1173 178.86 79.4623 178.937 79.7756 179.09C80.0923 179.24 80.3623 179.45 80.5856 179.72C80.8123 179.99 80.9806 180.303 81.0906 180.66C81.204 181.017 81.2456 181.398 81.2156 181.805H77.1356C77.1756 182.088 77.269 182.342 77.4156 182.565C77.5623 182.785 77.749 182.96 77.9756 183.09C78.2056 183.22 78.4606 183.287 78.7406 183.29C79.0406 183.29 79.3123 183.213 79.5556 183.06C79.799 182.903 79.9956 182.69 80.1456 182.42L81.0006 182.62C80.8006 183.063 80.499 183.427 80.0956 183.71C79.6923 183.99 79.2406 184.13 78.7406 184.13ZM77.1106 181.145H80.3706C80.344 180.865 80.254 180.61 80.1006 180.38C79.9473 180.147 79.7523 179.96 79.5156 179.82C79.279 179.68 79.0206 179.61 78.7406 179.61C78.4606 179.61 78.204 179.678 77.9706 179.815C77.7373 179.952 77.544 180.137 77.3906 180.37C77.2406 180.6 77.1473 180.858 77.1106 181.145ZM82.2582 184V179H83.0982V179.625C83.2749 179.392 83.4982 179.207 83.7682 179.07C84.0382 178.93 84.3315 178.86 84.6482 178.86C84.8415 178.86 85.0282 178.885 85.2082 178.935L84.8682 179.775C84.7315 179.732 84.5982 179.71 84.4682 179.71C84.2182 179.71 83.9882 179.772 83.7782 179.895C83.5715 180.015 83.4065 180.178 83.2832 180.385C83.1599 180.592 83.0982 180.822 83.0982 181.075V184H82.2582ZM93.1329 180.89V184H92.2929V181.075C92.2929 180.822 92.2312 180.592 92.1079 180.385C91.9846 180.178 91.8196 180.015 91.6129 179.895C91.4062 179.772 91.1762 179.71 90.9229 179.71C90.6729 179.71 90.4429 179.772 90.2329 179.895C90.0262 180.015 89.8612 180.178 89.7379 180.385C89.6146 180.592 89.5529 180.822 89.5529 181.075V184H88.7129V179H89.5529V179.625C89.7296 179.392 89.9529 179.207 90.2229 179.07C90.4929 178.93 90.7862 178.86 91.1029 178.86C91.4762 178.86 91.8162 178.952 92.1229 179.135C92.4329 179.315 92.6779 179.558 92.8579 179.865C93.0412 180.172 93.1329 180.513 93.1329 180.89ZM98.2552 179H99.0952V184H98.2552L98.2202 183.155C98.0635 183.445 97.8468 183.68 97.5702 183.86C97.2968 184.04 96.9702 184.13 96.5902 184.13C96.2235 184.13 95.8802 184.062 95.5602 183.925C95.2402 183.785 94.9568 183.593 94.7102 183.35C94.4668 183.103 94.2768 182.82 94.1402 182.5C94.0035 182.18 93.9352 181.835 93.9352 181.465C93.9352 181.108 94.0018 180.772 94.1352 180.455C94.2685 180.138 94.4535 179.862 94.6902 179.625C94.9302 179.385 95.2068 179.198 95.5202 179.065C95.8335 178.928 96.1702 178.86 96.5302 178.86C96.9235 178.86 97.2685 178.953 97.5652 179.14C97.8618 179.323 98.1018 179.562 98.2852 179.855L98.2552 179ZM96.5752 183.315C96.9052 183.315 97.1902 183.235 97.4302 183.075C97.6735 182.912 97.8602 182.692 97.9902 182.415C98.1235 182.138 98.1902 181.833 98.1902 181.5C98.1902 181.16 98.1235 180.853 97.9902 180.58C97.8568 180.303 97.6685 180.085 97.4252 179.925C97.1852 179.762 96.9018 179.68 96.5752 179.68C96.2452 179.68 95.9452 179.762 95.6752 179.925C95.4052 180.088 95.1902 180.308 95.0302 180.585C94.8735 180.858 94.7952 181.163 94.7952 181.5C94.7952 181.837 94.8768 182.143 95.0402 182.42C95.2035 182.693 95.4202 182.912 95.6902 183.075C95.9602 183.235 96.2552 183.315 96.5752 183.315ZM100.295 184V179H101.135V179.625C101.311 179.392 101.533 179.207 101.8 179.07C102.07 178.93 102.363 178.86 102.68 178.86C103.05 178.86 103.388 178.95 103.695 179.13C104.001 179.31 104.243 179.548 104.42 179.845C104.596 179.548 104.836 179.31 105.14 179.13C105.446 178.95 105.783 178.86 106.15 178.86C106.526 178.86 106.868 178.952 107.175 179.135C107.481 179.315 107.725 179.558 107.905 179.865C108.088 180.172 108.18 180.513 108.18 180.89V184H107.34V181.09C107.34 180.843 107.28 180.615 107.16 180.405C107.04 180.195 106.878 180.027 106.675 179.9C106.471 179.773 106.246 179.71 106 179.71C105.753 179.71 105.528 179.77 105.325 179.89C105.121 180.007 104.96 180.17 104.84 180.38C104.72 180.587 104.66 180.823 104.66 181.09V184H103.82V181.09C103.82 180.823 103.76 180.587 103.64 180.38C103.52 180.17 103.356 180.007 103.15 179.89C102.946 179.77 102.721 179.71 102.475 179.71C102.231 179.71 102.006 179.773 101.8 179.9C101.596 180.027 101.435 180.195 101.315 180.405C101.195 180.615 101.135 180.843 101.135 181.09V184H100.295ZM111.484 184.13C111.024 184.13 110.604 184.012 110.224 183.775C109.847 183.538 109.545 183.222 109.319 182.825C109.095 182.425 108.984 181.983 108.984 181.5C108.984 181.133 109.049 180.792 109.179 180.475C109.309 180.155 109.487 179.875 109.714 179.635C109.944 179.392 110.21 179.202 110.514 179.065C110.817 178.928 111.14 178.86 111.484 178.86C111.86 178.86 112.205 178.937 112.519 179.09C112.835 179.24 113.105 179.45 113.329 179.72C113.555 179.99 113.724 180.303 113.834 180.66C113.947 181.017 113.989 181.398 113.959 181.805H109.879C109.919 182.088 110.012 182.342 110.159 182.565C110.305 182.785 110.492 182.96 110.719 183.09C110.949 183.22 111.204 183.287 111.484 183.29C111.784 183.29 112.055 183.213 112.299 183.06C112.542 182.903 112.739 182.69 112.889 182.42L113.744 182.62C113.544 183.063 113.242 183.427 112.839 183.71C112.435 183.99 111.984 184.13 111.484 184.13ZM109.854 181.145H113.114C113.087 180.865 112.997 180.61 112.844 180.38C112.69 180.147 112.495 179.96 112.259 179.82C112.022 179.68 111.764 179.61 111.484 179.61C111.204 179.61 110.947 179.678 110.714 179.815C110.48 179.952 110.287 180.137 110.134 180.37C109.984 180.6 109.89 180.858 109.854 181.145Z" fill="white"/>
<path d="M31.575 201.829C31.295 201.829 31.0547 201.731 30.854 201.535C30.658 201.334 30.56 201.087 30.56 200.793C30.56 200.513 30.658 200.273 30.854 200.072C31.0547 199.871 31.295 199.771 31.575 199.771C31.8643 199.771 32.107 199.871 32.303 200.072C32.5037 200.273 32.604 200.513 32.604 200.793C32.604 201.087 32.5037 201.334 32.303 201.535C32.107 201.731 31.8643 201.829 31.575 201.829ZM34.9332 201.829C34.6532 201.829 34.4129 201.731 34.2122 201.535C34.0162 201.334 33.9182 201.087 33.9182 200.793C33.9182 200.513 34.0162 200.273 34.2122 200.072C34.4129 199.871 34.6532 199.771 34.9332 199.771C35.2225 199.771 35.4652 199.871 35.6612 200.072C35.8619 200.273 35.9622 200.513 35.9622 200.793C35.9622 201.087 35.8619 201.334 35.6612 201.535C35.4652 201.731 35.2225 201.829 34.9332 201.829ZM38.2914 201.829C38.0114 201.829 37.7711 201.731 37.5704 201.535C37.3744 201.334 37.2764 201.087 37.2764 200.793C37.2764 200.513 37.3744 200.273 37.5704 200.072C37.7711 199.871 38.0114 199.771 38.2914 199.771C38.5807 199.771 38.8234 199.871 39.0194 200.072C39.2201 200.273 39.3204 200.513 39.3204 200.793C39.3204 201.087 39.2201 201.334 39.0194 201.535C38.8234 201.731 38.5807 201.829 38.2914 201.829ZM41.6496 201.829C41.3696 201.829 41.1293 201.731 40.9286 201.535C40.7326 201.334 40.6346 201.087 40.6346 200.793C40.6346 200.513 40.7326 200.273 40.9286 200.072C41.1293 199.871 41.3696 199.771 41.6496 199.771C41.9389 199.771 42.1816 199.871 42.3776 200.072C42.5783 200.273 42.6786 200.513 42.6786 200.793C42.6786 201.087 42.5783 201.334 42.3776 201.535C42.1816 201.731 41.9389 201.829 41.6496 201.829ZM48.5711 201.829C48.2911 201.829 48.0508 201.731 47.8501 201.535C47.6541 201.334 47.5561 201.087 47.5561 200.793C47.5561 200.513 47.6541 200.273 47.8501 200.072C48.0508 199.871 48.2911 199.771 48.5711 199.771C48.8604 199.771 49.1031 199.871 49.2991 200.072C49.4998 200.273 49.6001 200.513 49.6001 200.793C49.6001 201.087 49.4998 201.334 49.2991 201.535C49.1031 201.731 48.8604 201.829 48.5711 201.829ZM51.9293 201.829C51.6493 201.829 51.409 201.731 51.2083 201.535C51.0123 201.334 50.9143 201.087 50.9143 200.793C50.9143 200.513 51.0123 200.273 51.2083 200.072C51.409 199.871 51.6493 199.771 51.9293 199.771C52.2186 199.771 52.4613 199.871 52.6573 200.072C52.858 200.273 52.9583 200.513 52.9583 200.793C52.9583 201.087 52.858 201.334 52.6573 201.535C52.4613 201.731 52.2186 201.829 51.9293 201.829ZM55.2875 201.829C55.0075 201.829 54.7672 201.731 54.5665 201.535C54.3705 201.334 54.2725 201.087 54.2725 200.793C54.2725 200.513 54.3705 200.273 54.5665 200.072C54.7672 199.871 55.0075 199.771 55.2875 199.771C55.5768 199.771 55.8195 199.871 56.0155 200.072C56.2162 200.273 56.3165 200.513 56.3165 200.793C56.3165 201.087 56.2162 201.334 56.0155 201.535C55.8195 201.731 55.5768 201.829 55.2875 201.829ZM58.6457 201.829C58.3657 201.829 58.1254 201.731 57.9247 201.535C57.7287 201.334 57.6307 201.087 57.6307 200.793C57.6307 200.513 57.7287 200.273 57.9247 200.072C58.1254 199.871 58.3657 199.771 58.6457 199.771C58.935 199.771 59.1777 199.871 59.3737 200.072C59.5744 200.273 59.6747 200.513 59.6747 200.793C59.6747 201.087 59.5744 201.334 59.3737 201.535C59.1777 201.731 58.935 201.829 58.6457 201.829Z" fill="white"/>
<path d="M168.174 184V177H172.469V177.84H169.014V179.83H171.844V180.67H169.014V183.16H172.469V184H168.174ZM173.291 184L175.121 181.49L173.301 178.99H174.336L175.641 180.77L176.941 178.99H177.976L176.156 181.49L177.986 184H176.951L175.641 182.2L174.326 184H173.291ZM179.893 186.5H179.053V179H179.893V179.855C180.063 179.562 180.289 179.325 180.573 179.145C180.856 178.962 181.193 178.87 181.583 178.87C181.946 178.87 182.286 178.938 182.603 179.075C182.923 179.212 183.203 179.402 183.443 179.645C183.683 179.885 183.871 180.163 184.008 180.48C184.144 180.797 184.213 181.137 184.213 181.5C184.213 181.863 184.144 182.205 184.008 182.525C183.871 182.845 183.683 183.127 183.443 183.37C183.203 183.61 182.923 183.798 182.603 183.935C182.286 184.072 181.946 184.14 181.583 184.14C181.193 184.14 180.856 184.05 180.573 183.87C180.289 183.687 180.063 183.448 179.893 183.155V186.5ZM181.573 179.685C181.249 179.685 180.966 179.767 180.723 179.93C180.479 180.093 180.291 180.312 180.158 180.585C180.028 180.858 179.963 181.163 179.963 181.5C179.963 181.833 180.028 182.138 180.158 182.415C180.291 182.692 180.478 182.912 180.718 183.075C180.961 183.238 181.246 183.32 181.573 183.32C181.896 183.32 182.193 183.24 182.463 183.08C182.733 182.917 182.949 182.698 183.113 182.425C183.276 182.148 183.358 181.84 183.358 181.5C183.358 181.167 183.278 180.863 183.118 180.59C182.958 180.313 182.743 180.093 182.473 179.93C182.203 179.767 181.903 179.685 181.573 179.685ZM185.18 179H186.02V184H185.18V179ZM185.61 178.185C185.477 178.185 185.365 178.142 185.275 178.055C185.185 177.968 185.14 177.86 185.14 177.73C185.14 177.6 185.185 177.492 185.275 177.405C185.365 177.318 185.475 177.275 185.605 177.275C185.735 177.275 185.845 177.318 185.935 177.405C186.025 177.492 186.07 177.6 186.07 177.73C186.07 177.86 186.025 177.968 185.935 178.055C185.849 178.142 185.74 178.185 185.61 178.185ZM187.392 184V179H188.232V179.625C188.409 179.392 188.632 179.207 188.902 179.07C189.172 178.93 189.466 178.86 189.782 178.86C189.976 178.86 190.162 178.885 190.342 178.935L190.002 179.775C189.866 179.732 189.732 179.71 189.602 179.71C189.352 179.71 189.122 179.772 188.912 179.895C188.706 180.015 188.541 180.178 188.417 180.385C188.294 180.592 188.232 180.822 188.232 181.075V184H187.392ZM194.582 179H195.472L192.737 186.5H191.847L192.752 184L190.957 179H191.877L193.172 182.845L194.582 179ZM203.296 176.5H204.136V184H203.296V183.15C203.126 183.443 202.898 183.68 202.611 183.86C202.325 184.04 201.988 184.13 201.601 184.13C201.238 184.13 200.898 184.062 200.581 183.925C200.265 183.788 199.985 183.6 199.741 183.36C199.501 183.117 199.313 182.837 199.176 182.52C199.04 182.203 198.971 181.863 198.971 181.5C198.971 181.137 199.04 180.797 199.176 180.48C199.313 180.16 199.501 179.88 199.741 179.64C199.985 179.397 200.265 179.207 200.581 179.07C200.898 178.933 201.238 178.865 201.601 178.865C201.988 178.865 202.325 178.955 202.611 179.135C202.898 179.315 203.126 179.552 203.296 179.845V176.5ZM201.611 183.315C201.941 183.315 202.226 183.235 202.466 183.075C202.71 182.912 202.896 182.692 203.026 182.415C203.16 182.138 203.226 181.833 203.226 181.5C203.226 181.16 203.16 180.853 203.026 180.58C202.893 180.303 202.705 180.085 202.461 179.925C202.221 179.762 201.938 179.68 201.611 179.68C201.281 179.68 200.981 179.762 200.711 179.925C200.445 180.088 200.231 180.308 200.071 180.585C199.911 180.858 199.831 181.163 199.831 181.5C199.831 181.837 199.913 182.143 200.076 182.42C200.24 182.693 200.456 182.912 200.726 183.075C200.996 183.235 201.291 183.315 201.611 183.315ZM209.507 179H210.347V184H209.507L209.472 183.155C209.315 183.445 209.099 183.68 208.822 183.86C208.549 184.04 208.222 184.13 207.842 184.13C207.475 184.13 207.132 184.062 206.812 183.925C206.492 183.785 206.209 183.593 205.962 183.35C205.719 183.103 205.529 182.82 205.392 182.5C205.255 182.18 205.187 181.835 205.187 181.465C205.187 181.108 205.254 180.772 205.387 180.455C205.52 180.138 205.705 179.862 205.942 179.625C206.182 179.385 206.459 179.198 206.772 179.065C207.085 178.928 207.422 178.86 207.782 178.86C208.175 178.86 208.52 178.953 208.817 179.14C209.114 179.323 209.354 179.562 209.537 179.855L209.507 179ZM207.827 183.315C208.157 183.315 208.442 183.235 208.682 183.075C208.925 182.912 209.112 182.692 209.242 182.415C209.375 182.138 209.442 181.833 209.442 181.5C209.442 181.16 209.375 180.853 209.242 180.58C209.109 180.303 208.92 180.085 208.677 179.925C208.437 179.762 208.154 179.68 207.827 179.68C207.497 179.68 207.197 179.762 206.927 179.925C206.657 180.088 206.442 180.308 206.282 180.585C206.125 180.858 206.047 181.163 206.047 181.5C206.047 181.837 206.129 182.143 206.292 182.42C206.455 182.693 206.672 182.912 206.942 183.075C207.212 183.235 207.507 183.315 207.827 183.315ZM214.136 179.84H213.001L212.996 184H212.156L212.161 179.84H211.301V179H212.161L212.156 177.43H212.996L213.001 179H214.136V179.84ZM217.306 184.13C216.846 184.13 216.426 184.012 216.046 183.775C215.669 183.538 215.368 183.222 215.141 182.825C214.918 182.425 214.806 181.983 214.806 181.5C214.806 181.133 214.871 180.792 215.001 180.475C215.131 180.155 215.309 179.875 215.536 179.635C215.766 179.392 216.033 179.202 216.336 179.065C216.639 178.928 216.963 178.86 217.306 178.86C217.683 178.86 218.028 178.937 218.341 179.09C218.658 179.24 218.928 179.45 219.151 179.72C219.378 179.99 219.546 180.303 219.656 180.66C219.769 181.017 219.811 181.398 219.781 181.805H215.701C215.741 182.088 215.834 182.342 215.981 182.565C216.128 182.785 216.314 182.96 216.541 183.09C216.771 183.22 217.026 183.287 217.306 183.29C217.606 183.29 217.878 183.213 218.121 183.06C218.364 182.903 218.561 182.69 218.711 182.42L219.566 182.62C219.366 183.063 219.064 183.427 218.661 183.71C218.258 183.99 217.806 184.13 217.306 184.13ZM215.676 181.145H218.936C218.909 180.865 218.819 180.61 218.666 180.38C218.513 180.147 218.318 179.96 218.081 179.82C217.844 179.68 217.586 179.61 217.306 179.61C217.026 179.61 216.769 179.678 216.536 179.815C216.303 179.952 216.109 180.137 215.956 180.37C215.806 180.6 215.713 180.858 215.676 181.145Z" fill="white"/>
<path d="M169.149 201.829C168.869 201.829 168.629 201.731 168.428 201.535C168.232 201.334 168.134 201.087 168.134 200.793C168.134 200.513 168.232 200.273 168.428 200.072C168.629 199.871 168.869 199.771 169.149 199.771C169.439 199.771 169.681 199.871 169.877 200.072C170.078 200.273 170.178 200.513 170.178 200.793C170.178 201.087 170.078 201.334 169.877 201.535C169.681 201.731 169.439 201.829 169.149 201.829ZM172.507 201.829C172.227 201.829 171.987 201.731 171.786 201.535C171.59 201.334 171.492 201.087 171.492 200.793C171.492 200.513 171.59 200.273 171.786 200.072C171.987 199.871 172.227 199.771 172.507 199.771C172.797 199.771 173.039 199.871 173.235 200.072C173.436 200.273 173.536 200.513 173.536 200.793C173.536 201.087 173.436 201.334 173.235 201.535C173.039 201.731 172.797 201.829 172.507 201.829ZM175.866 201.829C175.586 201.829 175.345 201.731 175.145 201.535C174.949 201.334 174.851 201.087 174.851 200.793C174.851 200.513 174.949 200.273 175.145 200.072C175.345 199.871 175.586 199.771 175.866 199.771C176.155 199.771 176.398 199.871 176.594 200.072C176.794 200.273 176.895 200.513 176.895 200.793C176.895 201.087 176.794 201.334 176.594 201.535C176.398 201.731 176.155 201.829 175.866 201.829ZM179.224 201.829C178.944 201.829 178.703 201.731 178.503 201.535C178.307 201.334 178.209 201.087 178.209 200.793C178.209 200.513 178.307 200.273 178.503 200.072C178.703 199.871 178.944 199.771 179.224 199.771C179.513 199.771 179.756 199.871 179.952 200.072C180.152 200.273 180.253 200.513 180.253 200.793C180.253 201.087 180.152 201.334 179.952 201.535C179.756 201.731 179.513 201.829 179.224 201.829ZM185.858 195.2L183.023 205.784H181.567L184.402 195.2H185.858ZM188.196 201.829C187.916 201.829 187.676 201.731 187.475 201.535C187.279 201.334 187.181 201.087 187.181 200.793C187.181 200.513 187.279 200.273 187.475 200.072C187.676 199.871 187.916 199.771 188.196 199.771C188.485 199.771 188.728 199.871 188.924 200.072C189.125 200.273 189.225 200.513 189.225 200.793C189.225 201.087 189.125 201.334 188.924 201.535C188.728 201.731 188.485 201.829 188.196 201.829ZM191.554 201.829C191.274 201.829 191.034 201.731 190.833 201.535C190.637 201.334 190.539 201.087 190.539 200.793C190.539 200.513 190.637 200.273 190.833 200.072C191.034 199.871 191.274 199.771 191.554 199.771C191.844 199.771 192.086 199.871 192.282 200.072C192.483 200.273 192.583 200.513 192.583 200.793C192.583 201.087 192.483 201.334 192.282 201.535C192.086 201.731 191.844 201.829 191.554 201.829ZM194.912 201.829C194.632 201.829 194.392 201.731 194.191 201.535C193.995 201.334 193.897 201.087 193.897 200.793C193.897 200.513 193.995 200.273 194.191 200.072C194.392 199.871 194.632 199.771 194.912 199.771C195.202 199.771 195.444 199.871 195.64 200.072C195.841 200.273 195.941 200.513 195.941 200.793C195.941 201.087 195.841 201.334 195.64 201.535C195.444 201.731 195.202 201.829 194.912 201.829ZM198.271 201.829C197.991 201.829 197.75 201.731 197.55 201.535C197.354 201.334 197.256 201.087 197.256 200.793C197.256 200.513 197.354 200.273 197.55 200.072C197.75 199.871 197.991 199.771 198.271 199.771C198.56 199.771 198.803 199.871 198.999 200.072C199.199 200.273 199.3 200.513 199.3 200.793C199.3 201.087 199.199 201.334 198.999 201.535C198.803 201.731 198.56 201.829 198.271 201.829Z" fill="white"/>
</g>
<defs>
<clipPath id="clip0_4743_28723">
<rect width="380" height="239" rx="24" fill="white"/>
</clipPath>
</defs>
</svg>
